<svg xmlns="http://www.w3.org/2000/svg" width="64" height="64" viewBox="0 0 64 64" fill="none">
	<defs>
		<linearGradient id="fish-body" x1="14" y1="14" x2="50" y2="48" gradientUnits="userSpaceOnUse">
			<stop stop-color="#FFE08A" />
			<stop offset="1" stop-color="#F2A11D" />
		</linearGradient>
		<linearGradient id="fish-fin" x1="20" y1="16" x2="28" y2="28" gradientUnits="userSpaceOnUse">
			<stop stop-color="#FFF2BF" />
			<stop offset="1" stop-color="#F7C94A" />
		</linearGradient>
	</defs>
	<rect width="64" height="64" rx="16" fill="#101826" />
	<ellipse cx="31" cy="32" rx="18" ry="12.5" fill="url(#fish-body)" stroke="#CC8607" stroke-width="2" />
	<path d="M44 32L56 25V39L44 32Z" fill="#F4B12C" stroke="#CC8607" stroke-width="2" stroke-linejoin="round" />
	<path d="M23 22L17 15L28.5 18L23 22Z" fill="url(#fish-fin)" stroke="#CC8607" stroke-width="1.6" stroke-linejoin="round" />
	<path d="M23 42L17 49L28.5 46L23 42Z" fill="url(#fish-fin)" stroke="#CC8607" stroke-width="1.6" stroke-linejoin="round" />
	<circle cx="23" cy="29" r="2.4" fill="#1F2B3D" />
	<path d="M31 36C33 38 37 38 39 36" stroke="#A76500" stroke-width="2" stroke-linecap="round" />
	<path d="M13 32C13 25.096 21.059 19.5 31 19.5C38.668 19.5 45.215 22.834 47.9 27.528" stroke="#FFF4D0" stroke-opacity="0.35" stroke-width="2" stroke-linecap="round" />
</svg>